<?xml version="1.0" encoding="utf-8"?>
<!-- Generator: Adobe Illustrator 25.4.1, SVG Export Plug-In . SVG Version: 6.00 Build 0)  -->
<svg version="1.1" id="Layer_1" xmlns="http://www.w3.org/2000/svg" xmlns:xlink="http://www.w3.org/1999/xlink" x="0px" y="0px"
	 viewBox="0 0 30 30" style="enable-background:new 0 0 30 30;" xml:space="preserve">
<style type="text/css">
	.st0{opacity:0.4;}
	.st1{fill:#2772F0;}
</style>
<g class="st0">
	<g>
		<path class="st1" d="M17.9,30c-0.4,0-0.7-0.3-0.7-0.7c0-1.5,3.6-2.9,5.5-3.2c2.3-0.4,2.4-0.8,2.4-1.1c0-0.5-0.1-0.6-0.2-0.7
			c-0.1-0.2-0.1-0.2-0.2-0.3c-0.1-0.2-0.2-0.4-0.2-0.8c0-0.6,0.3-1,0.5-1.1c0,0,0.1-0.1,0.1-0.1c0-0.2,0.1-0.4,0.2-0.6l0.3-0.3
			l-0.4-1.4c0,0,0,0,0,0c0,0-0.1-0.1-0.1-0.3c0-0.1,0-0.2,0.1-0.3c0.1-0.2,0.4-0.3,0.5-0.3c0.6-0.2,1.2-0.5,1.2-0.6
			c0-0.3-1.2-2.6-2.6-5.1c-0.1-0.1-0.1-0.4-0.1-0.5c0-0.1,0.3-1.1,0.3-2.9c0-1.7-2.6-7.9-10.4-7.9c-8.5,0-10.4,6.8-10.4,9.2
			c0,2.6,1.6,5.5,3,7.9L7,19c0.9,1.7,1.7,3,1.7,4.1c0,2.1-2.7,5.3-3.6,6.4c-0.1,0.1-0.2,0.2-0.2,0.3C4.7,29.9,4.5,30,4.3,30
			c-0.2,0-0.3,0-0.4-0.1H3.8l-0.1-0.1c-0.1-0.1-0.2-0.3-0.2-0.5c0-0.2,0.1-0.4,0.2-0.5c1.1-1.2,3.5-4.3,3.5-5.7
			c0-0.7-0.8-2.1-1.6-3.5c-1.4-2.4-3.3-5.7-3.3-8.9C2.3,6.2,5.9,0,14.1,0c8.1,0,11.8,6.7,11.8,9.3c0,1.6-0.1,2.6-0.2,3
			c0.2,0.3,0.4,0.7,0.6,1.1c1.1,2.1,2,3.9,2,4.6c0,1-1,1.5-1.6,1.7l0.4,1.1c0.1,0.3,0,0.6-0.2,0.8l-0.5,0.5c0,0.1,0,0.3,0,0.3
			c-0.1,0.3-0.4,0.5-0.6,0.6c0,0.1,0.1,0.1,0.1,0.2c0.2,0.3,0.5,0.8,0.5,1.6c0,1.9-1.7,2.3-3.7,2.6c-2.1,0.4-4.2,1.6-4.3,1.9
			C18.6,29.7,18.3,30,17.9,30z M13.2,17.1c-0.5,0-0.9-0.3-1-0.8L12,15.3l-0.4-0.2l-1.1,0.4c-0.1,0-0.2,0.1-0.3,0.1
			c-0.3,0-0.7-0.2-0.9-0.4l-1.1-2c-0.3-0.5-0.1-1,0.3-1.3l0.9-0.7v-0.3l-0.9-0.6C8.2,9.9,8,9.4,8.3,8.9L9.4,7
			c0.2-0.3,0.5-0.5,0.8-0.5c0.1,0,0.2,0,0.3,0.1l1.1,0.4l0.4-0.2l0.2-1.1c0.1-0.5,0.6-0.9,1-0.9h2.3c0.5,0,0.9,0.4,0.9,0.9l0.2,1
			l0.4,0.2l1.1-0.4c0.2,0,0.3-0.1,0.4-0.1c0.4,0,0.7,0.2,0.9,0.4l1.1,2.1c0.3,0.4,0.1,1-0.3,1.3L19.2,11v0.3l0.9,0.6
			c0.4,0.4,0.5,0.9,0.3,1.3l-1.1,1.9c-0.2,0.3-0.5,0.4-0.7,0.4l0,0c-0.2,0-0.3-0.1-0.4-0.2l-1-0.4l-0.4,0.2l-0.2,1.1
			c-0.1,0.6-0.5,0.9-1,0.9H13.2z M15,15.7l0.2-1c0-0.3,0.2-0.5,0.4-0.6c0.2-0.1,0.5-0.3,0.8-0.5c0.1-0.1,0.3-0.2,0.5-0.2
			c0.1,0,0.2,0,0.3,0.1l1,0.4l0.6-1L18,12.3c-0.3-0.1-0.3-0.5-0.3-0.7v-1c0-0.3,0.1-0.5,0.3-0.7l0.8-0.7l-0.7-1.2l-0.9,0.5
			c-0.1,0-0.2,0-0.3,0c-0.2,0-0.4,0-0.5-0.2c-0.2-0.2-0.5-0.3-0.8-0.4c-0.2-0.1-0.5-0.3-0.5-0.6l-0.2-1h-1.4l-0.2,1
			c0,0.3-0.2,0.5-0.4,0.6c-0.2,0.1-0.5,0.3-0.8,0.5l-0.1,0.1c-0.1,0.1-0.2,0.1-0.4,0.1c-0.1,0-0.2,0-0.3-0.1l-1-0.4L9.8,9.2l0.8,0.6
			c0.3,0.1,0.3,0.5,0.3,0.7v0.9c0,0.3-0.1,0.5-0.3,0.7l-0.8,0.7l0.7,1.2l1-0.5h0.1c0.2,0,0.5,0,0.7,0.2c0.2,0.2,0.4,0.4,0.7,0.4
			c0.2,0.1,0.5,0.3,0.5,0.6l0.2,1H15z M14.3,13.3c-1.2,0-2.2-1-2.2-2.2c0-1.2,1-2.2,2.2-2.2c1.2,0,2.2,1,2.2,2.2
			C16.5,12.3,15.5,13.3,14.3,13.3z M14.3,10.3c-0.4,0-0.7,0.3-0.7,0.7s0.3,0.7,0.7,0.7s0.7-0.3,0.7-0.7S14.8,10.3,14.3,10.3z"/>
		<path class="st1" d="M14.3,9.1c-1.1,0-2,0.9-2,2s0.9,2,2,2s2-0.9,2-2S15.4,9.1,14.3,9.1z M14.3,12.1c-0.6,0-1-0.4-1-1
			c0-0.6,0.4-1,1-1s1,0.4,1,1C15.3,11.7,14.9,12.1,14.3,12.1z M19,15l1.1-1.9c0.2-0.3,0.1-0.7-0.2-1l-1-0.7c0-0.1,0-0.2,0-0.3
			c0-0.1,0-0.2,0-0.3l1-0.7c0.3-0.2,0.4-0.7,0.2-1L19,7.1c-0.2-0.3-0.6-0.4-1-0.3l-1.2,0.5c-0.2-0.1-0.4-0.2-0.6-0.3l-0.2-1.2
			c0-0.4-0.3-0.7-0.7-0.7h-2.3c-0.4,0-0.7,0.3-0.8,0.7L12.2,7c-0.2,0.1-0.4,0.2-0.6,0.3l-1.2-0.5c-0.2-0.1-0.6,0-0.8,0.3L8.5,9
			c-0.2,0.4-0.1,0.8,0.2,1l1,0.7c0,0.1,0,0.2,0,0.3s0,0.2,0,0.3l-1,0.8c-0.3,0.2-0.4,0.6-0.2,1l0,0l1.1,2c0.2,0.3,0.6,0.4,0.9,0.3
			l1.2-0.5c0.2,0.1,0.4,0.2,0.6,0.3l0.2,1.2c0.1,0.4,0.4,0.6,0.8,0.6h2.3c0.4,0,0.7-0.3,0.8-0.7l0.2-1.2c0.2-0.1,0.4-0.2,0.6-0.3
			l1.2,0.5C18.4,15.4,18.8,15.3,19,15z M16.6,13.9c-0.3,0.2-0.6,0.4-0.8,0.5c-0.2,0.1-0.3,0.2-0.3,0.4L15.2,16h-1.9l-0.2-1.3
			c0-0.2-0.1-0.3-0.3-0.4c-0.3-0.1-0.6-0.3-0.8-0.5c-0.1-0.1-0.3-0.1-0.5-0.1l-1.2,0.6l-0.9-1.6l1-0.8c0.1-0.1,0.2-0.3,0.2-0.5
			c0-0.2,0-0.3,0-0.5c0-0.2,0-0.3,0-0.4c0-0.2,0-0.4-0.2-0.5l-1-0.8l0.9-1.5l1.2,0.5c0.2,0.1,0.3,0,0.5-0.1c0.3-0.2,0.6-0.4,0.8-0.5
			c0.2-0.1,0.3-0.2,0.3-0.4l0.3-1.2h1.9l0.2,1.3c0,0.2,0.1,0.3,0.3,0.4c0.3,0.1,0.6,0.3,0.9,0.5c0.1,0.1,0.3,0.1,0.5,0.1l1.1-0.6
			l0.9,1.6l-1,0.8C18,10.3,18,10.5,18,10.7c0,0.2,0,0.3,0,0.5c0,0.2,0,0.3,0,0.5c0,0.2,0,0.4,0.2,0.5l1,0.8l-0.9,1.4l-1.2-0.5
			C16.9,13.7,16.7,13.8,16.6,13.9z M28.1,18c0-0.9-2-4.3-2.7-5.7c0.1-0.4,0.2-1.5,0.2-3c0-2.5-3.4-9-11.5-9S2.5,6.3,2.5,10.7
			c0,3,1.8,6.2,3.2,8.7c0.9,1.5,1.7,2.9,1.7,3.6c0,1.6-2.6,4.8-3.5,5.9c-0.2,0.2-0.2,0.5,0,0.7c0.1,0,0.2,0.1,0.4,0.1
			c0.1,0,0.3-0.1,0.4-0.2c0.3-0.4,3.7-4.2,3.7-6.5c0-1-0.8-2.4-1.8-4.1c-1.4-2.5-3.1-5.5-3.1-8.3c0-3.1,2.6-9.4,10.6-9.4
			c8,0,10.6,6.5,10.6,8.2c0,1.9-0.3,2.9-0.3,2.9c0,0.1,0,0.3,0.1,0.4c1.3,2.2,2.7,4.8,2.7,5.3c0,0.2-0.7,0.6-1.5,0.8
			c-0.1,0-0.3,0.1-0.3,0.2c-0.1,0.1-0.1,0.3,0,0.4l0.5,1.6l-0.4,0.4c-0.1,0.2-0.2,0.4-0.1,0.6c-0.1,0-0.2,0.1-0.3,0.2
			c-0.2,0.1-0.4,0.4-0.4,0.9s0.2,0.7,0.3,1c0.2,0.2,0.3,0.4,0.3,0.9c0,0.6-0.4,1-2.7,1.4c-1.9,0.3-5.3,1.7-5.3,2.9
			c0,0.3,0.2,0.5,0.5,0.5c0.3,0,0.5-0.2,0.5-0.5c0.2-0.4,2.4-1.7,4.5-2.1c1.9-0.3,3.4-0.7,3.4-2.4c0-0.8-0.3-1.2-0.5-1.5
			c-0.1-0.2-0.2-0.3-0.2-0.4s0-0.1,0.1-0.1c0.3,0,0.5-0.2,0.6-0.4c0-0.1,0-0.3-0.1-0.4l0.6-0.6c0.1-0.1,0.2-0.3,0.1-0.5l-0.5-1.4
			C27.1,19.4,28.1,18.9,28.1,18z"/>
	</g>
</g>
</svg>
