<?xml version="1.0" encoding="utf-8"?>
<!-- Generator: Adobe Illustrator 25.4.1, SVG Export Plug-In . SVG Version: 6.00 Build 0)  -->
<svg version="1.1" id="Layer_1" xmlns="http://www.w3.org/2000/svg" xmlns:xlink="http://www.w3.org/1999/xlink" x="0px" y="0px"
	 viewBox="0 0 30 30" style="enable-background:new 0 0 30 30;" xml:space="preserve">
<style type="text/css">
	.st0{opacity:0.4;}
	.st1{fill:#2772F0;}
</style>
<g class="st0">
	<g>
		<path class="st1" d="M3.4,26.8c-1.9,0-3.4-1.5-3.4-3.4V8.9C0,7,1.5,5.5,3.4,5.5h4.4c1.5,0,2.7,0.9,3.2,2.4l0,0.1v0.2L11,8.5
			c0.2,0.5,0.7,0.9,1.4,0.9h14.2c1.9,0,3.4,1.5,3.4,3.4v10.6c0,1.9-1.5,3.4-3.4,3.4H3.4z M3.4,7.4c-0.8,0-1.5,0.7-1.5,1.5v14.5
			c0,0.8,0.7,1.5,1.5,1.5h23.2c0.8,0,1.5-0.7,1.5-1.5V12.8c0-0.8-0.7-1.5-1.5-1.5H12.4c-1.5,0-2.7-0.9-3.2-2.4l0-0.1V8.7L9.1,8.3
			C8.9,7.8,8.3,7.4,7.7,7.4H3.4z"/>
		<path class="st1" d="M26.6,26.3H3.4c-1.6,0-2.9-1.3-2.9-2.9V8.9C0.5,7.3,1.7,6,3.4,6h4.4c1.3,0,2.3,0.8,2.7,2v0.1l0.1,0.5
			c0.3,0.8,1,1.3,1.8,1.3h14.2c1.6,0,2.9,1.3,2.9,2.9v10.6C29.5,25.1,28.3,26.3,26.6,26.3z M3.4,7C2.3,7,1.4,7.8,1.4,8.9v14.5
			c0,1.1,0.9,1.9,1.9,1.9h23.2c1.1,0,1.9-0.9,1.9-1.9V12.8c0-1.1-0.9-1.9-1.9-1.9H12.4c-1.3,0-2.3-0.8-2.7-2V8.7L9.6,8.2
			C9.3,7.4,8.5,7,7.7,7H3.4z"/>
	</g>
	<g>
		<path class="st1" d="M28.1,11.8c-0.6,0-1-0.4-1-1V7c0-0.8-0.7-1.5-1.5-1.5H4.3C3.5,5.5,2.9,6.2,2.9,7c0,0.6-0.4,1-1,1S1,7.5,1,7
			c0-1.9,1.5-3.4,3.4-3.4h21.3C27.5,3.6,29,5.1,29,7v3.9C29,11.4,28.6,11.8,28.1,11.8z"/>
		<path class="st1" d="M28.1,11.3c-0.3,0-0.5-0.2-0.5-0.5V7c0-1.1-0.9-1.9-1.9-1.9H4.3C3.3,5,2.4,5.9,2.4,7c0,0.3-0.2,0.5-0.5,0.5
			S1.4,7.3,1.4,7c0-1.6,1.3-2.9,2.9-2.9h21.3c1.6,0,2.9,1.3,2.9,2.9v3.9C28.5,11.1,28.4,11.3,28.1,11.3z"/>
	</g>
</g>
</svg>
