<?xml version="1.0" encoding="utf-8"?>
<!-- Generator: Adobe Illustrator 26.0.1, SVG Export Plug-In . SVG Version: 6.00 Build 0)  -->
<svg version="1.1" id="Layer_1" xmlns="http://www.w3.org/2000/svg" xmlns:xlink="http://www.w3.org/1999/xlink" x="0px" y="0px"
	 viewBox="0 0 24 24" style="enable-background:new 0 0 24 24;" xml:space="preserve">
<style type="text/css">
	.st0{opacity:0.4;}
	.st1{fill:#2772F0;}
</style>
<g class="st0">
	<path class="st1" d="M2.5,24c-1.6,0-2.8-1.3-2.8-3V3c0-1.7,1.2-3,2.8-3h18.7C22.8,0,24,1.3,24,3v18c0,1.7-1.2,3-2.8,3H2.5z M1.4,21
		c0,0.6,0.5,1.2,1.1,1.2h18.7c0.6,0,1.1-0.6,1.1-1.2V6H1.4V21z M22.3,4.2V3c0-0.7-0.5-1.2-1.1-1.2H2.5C1.9,1.8,1.4,2.4,1.4,3v1.2
		H22.3z"/>
	<path class="st1" d="M21.2,0.4H2.5C1.2,0.4,0.1,1.5,0.1,3v18c0,1.5,1.1,2.6,2.5,2.6h18.7c1.4,0,2.5-1.2,2.5-2.6V3
		C23.7,1.5,22.6,0.4,21.2,0.4z M2.5,1.4h18.7c0.8,0,1.5,0.7,1.5,1.6v1.6H1.1V3C1.1,2.2,1.8,1.4,2.5,1.4z M21.2,22.6H2.5
		c-0.8,0-1.5-0.7-1.5-1.6V5.7h21.6V21C22.7,21.8,22,22.6,21.2,22.6z"/>
	<path class="st1" d="M2.5,3.9C2.1,3.9,1.7,3.5,1.7,3s0.4-0.9,0.8-0.9S3.4,2.5,3.4,3S3,3.9,2.5,3.9z"/>
	<ellipse class="st1" cx="2.5" cy="3" rx="0.5" ry="0.5"/>
	<ellipse class="st1" cx="4.5" cy="3" rx="0.8" ry="0.9"/>
	<ellipse class="st1" cx="4.5" cy="3" rx="0.5" ry="0.5"/>
	<path class="st1" d="M6.5,3.9C6,3.9,5.6,3.5,5.6,3S6,2.1,6.5,2.1c0.5,0,0.8,0.4,0.8,0.9S6.9,3.9,6.5,3.9z"/>
	<ellipse class="st1" cx="6.5" cy="3" rx="0.5" ry="0.5"/>
	<path class="st1" d="M7,18.7c-2.4,0-4.3-2.1-4.3-4.6c0-2.4,1.7-4.4,3.9-4.6V9.4c0-0.5,0.3-0.9,0.8-0.9c2.6,0,4.8,2.3,4.8,5.1
		c0,0.5-0.3,0.9-0.8,0.9h-0.2C11,16.8,9.2,18.7,7,18.7z M6.6,11.3c-1.3,0.2-2.3,1.3-2.3,2.8c0,1.6,1.1,2.8,2.6,2.8
		c1.4,0,2.4-1,2.6-2.4H7.5c-0.5,0-0.8-0.4-0.8-0.9V11.3z M10.5,12.7c-0.3-1.2-1.2-2.1-2.2-2.4v2.4H10.5z"/>
	<path class="st1" d="M7.5,8.8C7.2,8.8,7,9,7,9.4v0.5C4.8,9.9,3,11.8,3,14.1s1.8,4.2,3.9,4.2s3.9-1.9,3.9-4.2h0.5
		c0.3,0,0.5-0.2,0.5-0.5C11.9,10.9,9.9,8.8,7.5,8.8z M7,17.3c-1.7,0-2.9-1.4-2.9-3.2s1.3-3.2,2.9-3.2v2.6c0,0.3,0.2,0.5,0.5,0.5h2.5
		C9.9,15.9,8.6,17.3,7,17.3z M7.9,13.1V9.9c1.5,0.2,2.7,1.5,2.9,3.2H7.9z"/>
	<path class="st1" d="M14.3,11.3c-0.5,0-0.8-0.4-0.8-0.9c0-0.5,0.3-0.9,0.8-0.9h5.9c0.5,0,0.8,0.4,0.8,0.9c0,0.5-0.3,0.9-0.8,0.9
		H14.3z"/>
	<path class="st1" d="M20.2,9.9h-5.9c-0.3,0-0.5,0.2-0.5,0.5s0.2,0.5,0.5,0.5h5.9c0.3,0,0.5-0.2,0.5-0.5S20.5,9.9,20.2,9.9z"/>
	<path class="st1" d="M14.3,14.5c-0.5,0-0.8-0.4-0.8-0.9c0-0.5,0.3-0.9,0.8-0.9h5.9c0.5,0,0.8,0.4,0.8,0.9c0,0.5-0.3,0.9-0.8,0.9
		H14.3z"/>
	<path class="st1" d="M20.2,13.1h-5.9c-0.3,0-0.5,0.2-0.5,0.5s0.2,0.5,0.5,0.5h5.9c0.3,0,0.5-0.2,0.5-0.5S20.5,13.1,20.2,13.1z"/>
	<path class="st1" d="M14.3,17.7c-0.5,0-0.8-0.4-0.8-0.9c0-0.5,0.3-0.9,0.8-0.9h5.9c0.5,0,0.8,0.4,0.8,0.9c0,0.5-0.3,0.9-0.8,0.9
		H14.3z"/>
	<path class="st1" d="M20.2,16.2h-5.9c-0.3,0-0.5,0.2-0.5,0.5s0.2,0.5,0.5,0.5h5.9c0.3,0,0.5-0.2,0.5-0.5S20.5,16.2,20.2,16.2z"/>
</g>
</svg>
