<?xml version="1.0" encoding="utf-8"?>
<!-- Generator: Adobe Illustrator 25.4.1, SVG Export Plug-In . SVG Version: 6.00 Build 0)  -->
<svg version="1.1" id="Layer_1" xmlns="http://www.w3.org/2000/svg" xmlns:xlink="http://www.w3.org/1999/xlink" x="0px" y="0px"
	 viewBox="0 0 24 24" style="enable-background:new 0 0 24 24;" xml:space="preserve">
<style type="text/css">
	.st0{opacity:0.4;}
	.st1{fill:#2772F0;}
</style>
<g class="st0">
	<path class="st1" d="M19.5,24.2c-0.2,0-0.3,0-0.4-0.1c-0.2-0.1-0.3-0.3-0.3-0.5c0-0.1-0.1-0.3-0.3-0.3c-0.1,0-0.2,0.1-0.3,0.3
		c0,0.2-0.1,0.4-0.3,0.5c-0.1,0.1-0.3,0.1-0.4,0.1l-0.1,0c-1.2-0.2-2.3-0.9-3.1-1.8c-0.1-0.1-0.2-0.3-0.2-0.5c0-0.2,0.1-0.4,0.3-0.5
		c0.1-0.1,0.2-0.2,0.1-0.3c0-0.1-0.1-0.1-0.2-0.1c0,0-0.1,0-0.1,0c-0.1,0-0.2,0.1-0.3,0.1c-0.1,0-0.2,0-0.3-0.1
		c-0.2-0.1-0.3-0.2-0.4-0.4c-0.2-0.6-0.3-1.2-0.3-1.8c0-0.6,0.1-1.2,0.3-1.8c0.1-0.2,0.2-0.3,0.4-0.4c0.1,0,0.2-0.1,0.3-0.1
		c0.1,0,0.2,0,0.3,0.1c0,0,0.1,0,0.1,0c0.1,0,0.2,0,0.2-0.1c0.1-0.1,0-0.3-0.1-0.3c-0.2-0.1-0.3-0.3-0.3-0.5c0-0.2,0-0.4,0.2-0.5
		c0.8-1,1.9-1.6,3.1-1.8l0.1,0c0.2,0,0.3,0,0.4,0.1c0.2,0.1,0.3,0.3,0.3,0.5c0,0.1,0.1,0.3,0.3,0.3c0.1,0,0.2-0.1,0.3-0.3
		c0-0.2,0.1-0.4,0.3-0.5c0.1-0.1,0.3-0.1,0.4-0.1l0.1,0c1.2,0.2,2.3,0.9,3.1,1.8c0.1,0.1,0.2,0.3,0.2,0.5c0,0.2-0.1,0.4-0.3,0.5
		c-0.1,0.1-0.2,0.2-0.1,0.3c0,0.1,0.1,0.1,0.2,0.1c0,0,0.1,0,0.1,0c0.1,0,0.2-0.1,0.3-0.1c0.1,0,0.2,0,0.3,0.1
		c0.2,0.1,0.3,0.2,0.4,0.4c0.2,0.6,0.3,1.2,0.3,1.8s-0.1,1.2-0.3,1.8c-0.1,0.2-0.2,0.3-0.4,0.4c-0.1,0-0.2,0.1-0.3,0.1l0,0
		c-0.1,0-0.2,0-0.3-0.1c0,0-0.1,0-0.1,0c-0.1,0-0.2,0-0.2,0.1c-0.1,0.1,0,0.3,0.1,0.3c0.2,0.1,0.3,0.3,0.3,0.5c0,0.2,0,0.4-0.2,0.5
		c-0.8,1-1.9,1.6-3.1,1.8L19.5,24.2z M15.8,21.8c0.4,0.4,0.9,0.6,1.4,0.8c0.3-0.5,0.8-0.7,1.4-0.7c0.6,0,1.1,0.3,1.4,0.7
		c0.5-0.2,1-0.4,1.4-0.8c-0.2-0.5-0.2-1.1,0.1-1.6c0.3-0.5,0.8-0.8,1.3-0.8c0.1-0.3,0.1-0.5,0.1-0.8c0-0.3,0-0.5-0.1-0.8
		c-0.6-0.1-1.1-0.4-1.3-0.8c-0.3-0.5-0.3-1.1-0.1-1.6c-0.4-0.4-0.9-0.6-1.4-0.8c-0.3,0.5-0.8,0.7-1.4,0.7c-0.6,0-1.1-0.3-1.4-0.7
		c-0.5,0.2-1,0.4-1.4,0.8c0.2,0.5,0.2,1.1-0.1,1.6c-0.3,0.5-0.8,0.8-1.3,0.8c-0.1,0.3-0.1,0.5-0.1,0.8c0,0.3,0,0.5,0.1,0.8
		c0.6,0.1,1.1,0.4,1.3,0.8C16,20.7,16,21.3,15.8,21.8z"/>
	<path class="st1" d="M23.7,16.8c0-0.1-0.1-0.2-0.3-0.3c-0.1-0.1-0.3-0.1-0.4,0c-0.2,0.1-0.5,0-0.6-0.2c-0.1-0.2-0.1-0.5,0.1-0.6
		c0.1-0.1,0.2-0.2,0.2-0.3c0-0.1,0-0.3-0.1-0.4c-0.8-0.9-1.8-1.5-3-1.8c-0.1,0-0.3,0-0.4,0.1c-0.1,0.1-0.2,0.2-0.2,0.3
		c0,0.3-0.2,0.4-0.5,0.4c-0.2,0-0.5-0.2-0.5-0.4c0-0.1-0.1-0.3-0.2-0.3c-0.1-0.1-0.3-0.1-0.4-0.1c-1.2,0.2-2.2,0.8-3,1.8
		c-0.1,0.1-0.1,0.2-0.1,0.4c0,0.1,0.1,0.3,0.2,0.3c0.2,0.2,0.3,0.4,0.1,0.6c-0.1,0.2-0.4,0.3-0.6,0.2c-0.1-0.1-0.3-0.1-0.4,0
		c-0.1,0.1-0.2,0.2-0.3,0.3c-0.2,0.6-0.3,1.2-0.3,1.7s0.1,1.1,0.3,1.7c0,0.1,0.1,0.2,0.3,0.3s0.3,0.1,0.4,0c0.2-0.1,0.5,0,0.6,0.2
		c0.1,0.2,0.1,0.5-0.1,0.6c-0.1,0.1-0.2,0.2-0.2,0.3c0,0.1,0,0.3,0.1,0.4c0.8,0.9,1.8,1.5,3,1.8c0.1,0,0.3,0,0.4-0.1
		c0.1-0.1,0.2-0.2,0.2-0.3c0-0.3,0.2-0.4,0.5-0.4c0.2,0,0.5,0.2,0.5,0.4c0,0.1,0.1,0.3,0.2,0.3c0.1,0.1,0.2,0.1,0.3,0.1
		c0,0,0.1,0,0.1,0c1.2-0.2,2.2-0.8,3-1.8c0.1-0.1,0.1-0.2,0.1-0.4c0-0.1-0.1-0.3-0.2-0.3c-0.2-0.2-0.3-0.4-0.1-0.6
		c0.1-0.2,0.4-0.3,0.6-0.2c0.1,0.1,0.3,0.1,0.4,0c0.1-0.1,0.2-0.2,0.3-0.3c0.2-0.6,0.3-1.2,0.3-1.7S23.9,17.5,23.7,16.8z M22.9,19.6
		c-0.6,0-1,0.3-1.3,0.7c-0.3,0.5-0.2,1.1,0,1.5c-0.5,0.5-1.1,0.8-1.7,1c-0.2-0.5-0.7-0.8-1.3-0.8c-0.6,0-1.1,0.3-1.3,0.8
		c-0.6-0.2-1.2-0.5-1.7-1c0.3-0.5,0.3-1,0-1.5c-0.3-0.5-0.8-0.8-1.3-0.7c-0.1-0.4-0.1-0.7-0.1-1c0-0.3,0-0.7,0.1-1
		c0.5,0,1-0.3,1.3-0.7c0.3-0.5,0.2-1.1,0-1.5c0.5-0.5,1.1-0.8,1.7-1c0.2,0.5,0.7,0.8,1.3,0.8c0.6,0,1.1-0.3,1.3-0.8
		c0.6,0.2,1.2,0.5,1.7,1c-0.3,0.5-0.3,1,0,1.5c0.3,0.5,0.8,0.7,1.3,0.7c0.1,0.4,0.1,0.7,0.1,1C23,18.9,22.9,19.2,22.9,19.6z"/>
	<path class="st1" d="M18.5,21.3c-1.5,0-2.7-1.2-2.7-2.7s1.2-2.7,2.7-2.7c1.5,0,2.7,1.2,2.7,2.7S20,21.3,18.5,21.3z M18.5,17.3
		c-0.7,0-1.3,0.6-1.3,1.3c0,0.7,0.6,1.3,1.3,1.3c0.7,0,1.3-0.6,1.3-1.3C19.8,17.9,19.2,17.3,18.5,17.3z"/>
	<path class="st1" d="M18.5,16.1c-1.4,0-2.5,1.1-2.5,2.5c0,1.4,1.1,2.5,2.5,2.5c1.4,0,2.5-1.1,2.5-2.5C21,17.2,19.9,16.1,18.5,16.1z
		 M18.5,20.1c-0.8,0-1.5-0.7-1.5-1.5c0-0.8,0.7-1.5,1.5-1.5c0.8,0,1.5,0.7,1.5,1.5C20,19.4,19.4,20.1,18.5,20.1z"/>
	<path class="st1" d="M5.7,21.3C5.3,21.3,5,21,5,20.7l-0.2-0.9l-4.2-0.5c-0.4,0-0.7-0.4-0.6-0.7L1,0.7c0-0.2,0.1-0.4,0.2-0.5
		C1.4,0.1,1.5,0,1.7,0l12.5,1l6.2-1l0.1,0c0.3,0,0.6,0.2,0.7,0.6l2.2,12.3c0,0.2,0,0.4-0.1,0.5c-0.1,0.2-0.3,0.3-0.5,0.3l-0.1,0
		c-0.3,0-0.6-0.2-0.7-0.6l-2-11.6L3.5,4.3l2.7,15.4l5.3-0.9l0.1,0c0.3,0,0.6,0.3,0.7,0.6c0.1,0.4-0.2,0.8-0.6,0.8L5.7,21.3L5.7,21.3
		z M4.5,18.3L2.2,5l-0.7,13L4.5,18.3z M2.3,3.1C2.4,3.1,2.5,3,2.6,3l5.9-1L2.4,1.5L2.3,3.1z"/>
	<path class="st1" d="M11.6,19.1L6.1,20L3.3,4.1l16.8-2.8l2.1,11.8c0,0.3,0.3,0.5,0.6,0.4c0.3,0,0.4-0.3,0.4-0.6L21,0.7
		c0-0.3-0.3-0.4-0.6-0.4l-6.2,1l-12.5-1c-0.1,0-0.3,0-0.4,0.1C1.3,0.5,1.2,0.6,1.2,0.7l-1,17.8c0,0.3,0.2,0.5,0.4,0.5L5,19.6
		l0.2,1.1c0,0.2,0.3,0.4,0.5,0.4c0,0,0.1,0,0.1,0l6-1c0.3,0,0.5-0.3,0.4-0.6C12.1,19.2,11.9,19,11.6,19.1z M1.2,18.1L2.2,1.3L10.3,2
		L2.6,3.2c-0.1,0-0.2,0.1-0.3,0.2C2.2,3.6,2.2,3.7,2.2,3.8l2.6,14.7L1.2,18.1z"/>
</g>
</svg>
