<?xml version="1.0" encoding="utf-8"?>
<!-- Generator: Adobe Illustrator 25.4.1, SVG Export Plug-In . SVG Version: 6.00 Build 0)  -->
<svg version="1.1" id="Layer_1" xmlns="http://www.w3.org/2000/svg" xmlns:xlink="http://www.w3.org/1999/xlink" x="0px" y="0px"
	 viewBox="0 0 30 30" style="enable-background:new 0 0 30 30;" xml:space="preserve">
<style type="text/css">
	.st0{opacity:0.4;}
	.st1{fill:#2772F0;}
</style>
<g class="st0">
	<g>
		<g>
			<path class="st1" d="M9.4,28.5c-0.4,0-0.5-0.2-0.7-0.5c-0.4-0.6-1.5-1-2.8-1s-2.3,0.4-2.8,1c-0.1,0.2-0.4,0.4-0.7,0.4
				c-0.1,0-0.2,0-0.3-0.1c-0.4-0.2-0.5-0.6-0.4-1.1c0.8-1.2,2.4-1.9,4.2-1.9c1.9,0,3.4,0.7,4.1,1.9c0.2,0.3,0.1,0.7-0.2,1l-0.1,0.1
				H9.4z"/>
			<path class="st1" d="M9.4,28.2c-0.2,0-0.3-0.1-0.4-0.3c-0.5-0.7-1.7-1.2-3-1.2s-2.5,0.5-3,1.2c-0.1,0.2-0.4,0.3-0.7,0.2
				C2.1,28,2,27.8,2.1,27.5c0.7-1,2.1-1.7,3.9-1.7s3.2,0.7,3.8,1.8c0.1,0.2,0,0.5-0.2,0.7C9.6,28.2,9.5,28.2,9.4,28.2z"/>
		</g>
		<g>
			<path class="st1" d="M6,25.1c-0.9,0-1.8-0.8-1.8-1.8c0-0.9,0.8-1.8,1.8-1.8s1.8,0.8,1.8,1.8C7.7,24.3,6.9,25.1,6,25.1z M6,23.2
				c-0.1,0-0.2,0.1-0.2,0.2s0.1,0.2,0.2,0.2s0.2-0.1,0.2-0.2S6.1,23.2,6,23.2z"/>
			<path class="st1" d="M6,24.8c-0.8,0-1.5-0.7-1.5-1.5s0.7-1.5,1.5-1.5s1.5,0.7,1.5,1.5S6.7,24.8,6,24.8z M6,22.9
				c-0.3,0-0.5,0.2-0.5,0.5s0.2,0.5,0.5,0.5s0.5-0.2,0.5-0.5S6.2,22.9,6,22.9z"/>
		</g>
	</g>
	<g>
		<path class="st1" d="M6,30c-3.1,0-5.7-2.6-5.7-5.7s2.6-5.7,5.7-5.7s5.7,2.6,5.7,5.7S9,30,6,30z M6,20.2c-2.3,0-4.1,1.8-4.1,4.1
			s1.8,4.1,4.1,4.1s4.1-1.8,4.1-4.1S8.2,20.2,6,20.2z"/>
		<path class="st1" d="M6,29.7c-2.9,0-5.4-2.4-5.4-5.4S3,19,6,19s5.4,2.4,5.4,5.4S8.9,29.7,6,29.7z M6,20c-2.4,0-4.4,2-4.4,4.4
			s2,4.4,4.4,4.4s4.4-2,4.4-4.4S8.4,20,6,20z"/>
	</g>
	<g>
		<path class="st1" d="M23.5,13.4c-3.7,0-6.6-3-6.6-6.6s3-6.6,6.6-6.6s6.6,3,6.6,6.6S27.2,13.4,23.5,13.4z M23.5,1.7
			c-2.7,0-5.1,2.3-5.1,5.1s2.3,5.1,5.1,5.1s5.1-2.3,5.1-5.1S26.3,1.7,23.5,1.7z"/>
		<path class="st1" d="M23.5,13.1c-3.5,0-6.3-2.8-6.3-6.3s2.8-6.3,6.3-6.3s6.3,2.8,6.3,6.3S27,13.1,23.5,13.1z M23.5,1.4
			c-2.9,0-5.4,2.4-5.4,5.4s2.4,5.4,5.4,5.4s5.4-2.4,5.4-5.4S26.4,1.4,23.5,1.4z"/>
	</g>
	<g>
		<path class="st1" d="M9.9,10.5c-0.1,0-0.4,0-0.6-0.2L0.5,1.5C0.3,1.2,0.3,0.7,0.4,0.4C0.5,0.2,0.7,0.1,1,0.1
			c0.2,0,0.4,0.1,0.6,0.2l8.8,8.8c0.2,0.1,0.2,0.3,0.2,0.5c0,0.2-0.1,0.3-0.2,0.5C10.4,10.3,10.3,10.5,9.9,10.5z"/>
		<path class="st1" d="M9.9,10.2c-0.1,0-0.3,0-0.4-0.1L0.7,1.3c-0.1-0.2-0.1-0.6,0-0.8s0.5-0.2,0.7,0l8.8,8.8c0.2,0.2,0.2,0.5,0,0.7
			C10.2,10.2,10,10.2,9.9,10.2z"/>
	</g>
	<g>
		<path class="st1" d="M1.1,10.5c-0.1,0-0.4,0-0.6-0.2C0.3,10,0.3,9.5,0.4,9.2l8.8-8.9c0.3-0.1,0.5-0.2,0.6-0.2c0.1,0,0.3,0,0.5,0.1
			c0.2,0.1,0.3,0.2,0.3,0.4c0,0.3,0,0.5-0.2,0.7l-8.8,8.8C1.6,10.5,1.2,10.5,1.1,10.5z"/>
		<path class="st1" d="M1.1,10.2c-0.1,0-0.3,0-0.4-0.1c-0.1-0.2-0.1-0.6,0-0.8l8.8-8.8c0.2-0.1,0.6-0.1,0.8,0s0.2,0.5,0,0.7L1.5,10
			C1.4,10.2,1.2,10.2,1.1,10.2z"/>
	</g>
	<g>
		<path class="st1" d="M27.4,28c-0.1,0-0.4,0-0.6-0.2L19,20.1c-0.3-0.3-0.3-0.8,0-1.1c0.2-0.1,0.3-0.2,0.5-0.2
			c0.2,0,0.4,0.1,0.5,0.2l7.8,7.8c0.3,0.3,0.3,0.7,0.1,1C27.9,27.9,27.8,28,27.4,28z"/>
		<path class="st1" d="M27.4,27.8c-0.1,0-0.3,0-0.4-0.1l-7.8-7.8c-0.2-0.2-0.2-0.5,0-0.7c0.2-0.2,0.5-0.2,0.7,0l7.8,7.8
			c0.2,0.2,0.2,0.5,0,0.7C27.7,27.8,27.5,27.8,27.4,27.8z"/>
	</g>
	<g>
		<path class="st1" d="M7.7,20.2c-0.3-0.1-0.5-0.2-0.6-0.4c-0.1-0.2-0.1-0.4,0-0.6c1.3-3.9,4-6.7,8.3-8.2c0.1,0,0.2-0.1,0.3-0.1
			c0.2,0,0.5,0.1,0.7,0.5c0.1,0.4,0,0.8-0.5,1c-3.8,1.4-6.2,3.8-7.3,7.3c0,0.2-0.3,0.5-0.7,0.5H7.7z"/>
		<path class="st1" d="M7.9,20c-0.1,0-0.1,0-0.2,0c-0.3-0.1-0.4-0.4-0.3-0.6c1.3-3.9,3.9-6.5,8.1-8.1c0.3-0.1,0.5,0,0.6,0.3
			c0.1,0.3,0,0.5-0.3,0.6c-3.9,1.5-6.3,3.9-7.5,7.5C8.3,19.9,8.1,20,7.9,20z"/>
	</g>
	<g>
		<path class="st1" d="M14.5,15.4c-0.3-0.1-0.5-0.2-0.6-0.4c-0.1-0.2-0.1-0.4,0-0.6l0.7-2.1l-2.2-0.8c-0.2-0.1-0.4-0.2-0.5-0.4
			c-0.1-0.2-0.1-0.4,0-0.6c0.1-0.3,0.4-0.5,0.7-0.5c0.1,0,0.2,0,0.3,0.1l2.9,1c0.2,0.1,0.4,0.2,0.5,0.4c0.1,0.2,0.1,0.4,0,0.6
			l-1,2.9c0,0.2-0.3,0.5-0.7,0.5H14.5z"/>
		<path class="st1" d="M14.7,15.1c-0.1,0-0.1,0-0.2,0c-0.3-0.1-0.4-0.4-0.3-0.6l0.8-2.4l-2.4-0.9c-0.3-0.1-0.4-0.4-0.3-0.6
			c0.1-0.3,0.4-0.4,0.6-0.3l2.9,1c0.3,0.1,0.4,0.4,0.3,0.6l-1,2.9C15.1,15,14.9,15.1,14.7,15.1z"/>
	</g>
	<g>
		<path class="st1" d="M19.6,28c-0.1,0-0.4,0-0.6-0.2c-0.3-0.3-0.3-0.8,0-1.1l7.8-7.8c0.1-0.1,0.3-0.2,0.5-0.2
			c0.2,0,0.4,0.1,0.5,0.2c0.1,0.1,0.2,0.3,0.2,0.5c0,0.2-0.1,0.4-0.2,0.5l-7.7,7.7C20.1,27.9,20,28,19.6,28z"/>
		<path class="st1" d="M19.6,27.8c-0.1,0-0.3,0-0.4-0.1c-0.2-0.2-0.2-0.5,0-0.7l7.8-7.8c0.2-0.2,0.5-0.2,0.7,0
			c0.2,0.2,0.2,0.5,0,0.7l-7.8,7.8C19.9,27.8,19.7,27.8,19.6,27.8z"/>
	</g>
	<g>
		<path class="st1" d="M23.5,9.5c-1.7,0-3.1-0.8-3.2-1.8c0-0.4,0.2-0.7,0.6-0.9l0.1,0H21c0.4,0,0.7,0.2,0.8,0.6l0,0.1v0.1
			c0,0.1,0.6,0.4,1.7,0.4c1,0,1.6-0.4,1.7-0.5h0c0,0-0.3-0.2-1.6-0.4l-0.2,0l-0.1,0c-0.9-0.1-2.9-0.4-2.9-1.9c0-1.2,1.4-2,3.2-2
			c1.7,0,3.1,0.8,3.2,1.8c0,0.4-0.2,0.7-0.5,0.9l-0.1,0h-0.1c-0.4,0-0.7-0.2-0.8-0.6l0-0.1V5c0-0.1-0.6-0.4-1.7-0.4
			c-1,0-1.6,0.4-1.7,0.5c0,0,0,0,0,0c0,0,0.3,0.2,1.6,0.4l0.2,0l0.1,0c0.9,0.1,2.9,0.4,2.9,1.9C26.7,8.6,25.4,9.5,23.5,9.5z"/>
		<path class="st1" d="M23.5,9.2c-1.6,0-2.8-0.7-2.9-1.6c0-0.3,0.2-0.5,0.4-0.6c0.3,0,0.5,0.2,0.6,0.4c0,0.3,0.7,0.7,2,0.7
			c1.2,0,2-0.5,2-0.8c0-0.1-0.1-0.5-1.9-0.7h-0.2c-0.8-0.1-2.7-0.3-2.7-1.7c0-1,1.3-1.8,2.9-1.8c1.6,0,2.8,0.7,2.9,1.6
			c0,0.3-0.2,0.5-0.4,0.6c-0.3,0-0.5-0.2-0.6-0.4c0-0.3-0.7-0.7-2-0.7c-1.2,0-2,0.5-2,0.8c0,0.1,0.1,0.5,1.9,0.7h0.2
			c0.8,0.1,2.7,0.3,2.7,1.7C26.4,8.4,25.2,9.2,23.5,9.2z"/>
	</g>
	<g>
		<path class="st1" d="M23.5,10.5c-0.5,0-0.8-0.3-0.8-0.8V2.9c0-0.5,0.3-0.8,0.8-0.8s0.8,0.3,0.8,0.8v6.8
			C24.3,10.2,24,10.5,23.5,10.5z"/>
		<path class="st1" d="M23.5,10.2c-0.3,0-0.5-0.2-0.5-0.5V2.9c0-0.3,0.2-0.5,0.5-0.5S24,2.6,24,2.9v6.8C24,10,23.8,10.2,23.5,10.2z"
			/>
	</g>
</g>
</svg>
