<?xml version="1.0" encoding="utf-8"?>
<!-- Generator: Adobe Illustrator 25.4.1, SVG Export Plug-In . SVG Version: 6.00 Build 0)  -->
<svg version="1.1" id="Layer_1" xmlns="http://www.w3.org/2000/svg" xmlns:xlink="http://www.w3.org/1999/xlink" x="0px" y="0px"
	 viewBox="0 0 24 24" style="enable-background:new 0 0 24 24;" xml:space="preserve">
<style type="text/css">
	.st0{opacity:0.4;}
	.st1{fill:#2772F0;}
</style>
<g id="Mail" class="st0">
</g>
<g id="Open_Mail" class="st0">
</g>
<g id="Mail_Attachmet" class="st0">
</g>
<g id="Mails" class="st0">
</g>
<g id="Trash" class="st0">
</g>
<g id="Trash_Full" class="st0">
</g>
<g id="Preferences_1" class="st0">
</g>
<g id="Preferences_2" class="st0">
</g>
<g id="Mouse" class="st0">
</g>
<g id="Computer" class="st0">
</g>
<g id="Notebook" class="st0">
</g>
<g id="Mobile_Phone" class="st0">
</g>
<g id="Print" class="st0">
</g>
<g id="Calculator" class="st0">
</g>
<g id="Tag" class="st0">
</g>
<g id="Paperclip" class="st0">
</g>
<g id="Heart" class="st0">
</g>
<g id="Lock" class="st0">
</g>
<g id="Lock_Open" class="st0">
</g>
<g id="Key_1" class="st0">
</g>
<g id="Star" class="st0">
</g>
<g id="Add" class="st0">
	<g>
		<g>
			<path class="st1" d="M12,24C5.4,24,0,18.6,0,12S5.4,0,12,0s12,5.4,12,12S18.6,24,12,24z M12,2C6.5,2,2,6.5,2,12s4.5,10,10,10
				s10-4.5,10-10S17.5,2,12,2z"/>
			<path class="st1" d="M12,24C5.4,24,0,18.6,0,12S5.4,0,12,0s12,5.4,12,12S18.6,24,12,24z M12,1C6,1,1,6,1,12S6,23,12,23
				S23,18,23,12S18,1,12,1z"/>
		</g>
		<g>
			<path class="st1" d="M6,13c-0.5,0-1-0.4-1-1s0.4-1,1-1h12c0.5,0,1,0.4,1,1s-0.4,1-1,1H6z"/>
			<path class="st1" d="M18.3,12.5H5.7c-0.3,0-0.5-0.2-0.5-0.5s0.2-0.5,0.5-0.5h12.5c0.3,0,0.5,0.2,0.5,0.5S18.5,12.5,18.3,12.5z"/>
		</g>
		<g>
			<path class="st1" d="M12,19c-0.5,0-1-0.4-1-1V6c0-0.5,0.4-1,1-1s1,0.4,1,1v12C13,18.6,12.5,19,12,19z"/>
			<path class="st1" d="M12,18.8c-0.3,0-0.5-0.2-0.5-0.5V5.7c0-0.3,0.2-0.5,0.5-0.5s0.5,0.2,0.5,0.5v12.5
				C12.5,18.5,12.3,18.8,12,18.8z"/>
		</g>
	</g>
</g>
<g id="Remove" class="st0">
</g>
<g id="Error" class="st0">
</g>
<g id="Check_1" class="st0">
</g>
<g id="Time" class="st0">
</g>
<g id="Question_Mark" class="st0">
</g>
<g id="Error_Mark" class="st0">
</g>
<g id="Sand-Glass" class="st0">
</g>
<g id="Battery_Full" class="st0">
</g>
<g id="Battery_Charge" class="st0">
</g>
<g id="Battery_Half" class="st0">
</g>
<g id="Battery_Low" class="st0">
</g>
<g id="No_Battery" class="st0">
</g>
<g id="Key_2" class="st0">
</g>
<g id="Link" class="st0">
</g>
<g id="Brake_Link" class="st0">
</g>
<g id="Pencil" class="st0">
</g>
<g id="At" class="st0">
</g>
<g id="Reply" class="st0">
</g>
<g id="Accessible" class="st0">
</g>
<g id="Up_Arrow" class="st0">
</g>
<g id="Brush" class="st0">
</g>
<g id="Design_Mug" class="st0">
</g>
<g id="Design" class="st0">
</g>
<g id="Server" class="st0">
</g>
<g id="Database" class="st0">
</g>
<g id="Save" class="st0">
</g>
<g id="Female" class="st0">
</g>
<g id="Male" class="st0">
</g>
<g id="Book" class="st0">
</g>
<g id="Power" class="st0">
</g>
<g id="Reload" class="st0">
</g>
<g id="Map" class="st0">
</g>
<g id="Loction_1" class="st0">
</g>
<g id="Location_2" class="st0">
</g>
<g id="Globe" class="st0">
</g>
<g id="Suitcase" class="st0">
</g>
<g id="Callendar" class="st0">
</g>
<g id="Cloud_Off" class="st0">
</g>
<g id="File_1" class="st0">
</g>
<g id="File_2" class="st0">
</g>
<g id="Folder" class="st0">
</g>
<g id="Open_Folder" class="st0">
</g>
<g id="Cloud" class="st0">
</g>
<g id="Upload_Cloud" class="st0">
</g>
<g id="Download_Cloud" class="st0">
</g>
<g id="Eye" class="st0">
</g>
<g id="Invisible" class="st0">
</g>
<g id="Assignment" class="st0">
</g>
<g id="Note_Book" class="st0">
</g>
<g id="Webpage" class="st0">
</g>
<g id="Mailbox" class="st0">
</g>
<g id="Drive" class="st0">
</g>
<g id="Disc" class="st0">
</g>
<g id="Wifi_1" class="st0">
</g>
<g id="Wifi_2" class="st0">
</g>
<g id="Archive" class="st0">
</g>
<g id="Archive_File" class="st0">
</g>
<g id="News" class="st0">
</g>
<g id="Home" class="st0">
</g>
<g id="Collaboration" class="st0">
</g>
<g id="Announcement" class="st0">
</g>
<g id="Watch" class="st0">
</g>
<g id="Clock" class="st0">
</g>
<g id="Volume" class="st0">
</g>
<g id="Mute" class="st0">
</g>
<g id="Hand" class="st0">
</g>
<g id="Layers" class="st0">
</g>
<g id="Bell" class="st0">
</g>
<g id="Speach_Bubble" class="st0">
</g>
<g id="Speach_Bubbles" class="st0">
</g>
<g id="Zoom_In" class="st0">
</g>
<g id="Zoom_Out" class="st0">
</g>
<g id="Search" class="st0">
</g>
<g id="Back_Arrow" class="st0">
</g>
<g id="Close" class="st0">
</g>
<g id="Check_2" class="st0">
</g>
<g id="Left_Arrow_2" class="st0">
</g>
<g id="Right_Arrow_2" class="st0">
</g>
</svg>
