<?xml version="1.0" encoding="utf-8"?>
<!-- Generator: Adobe Illustrator 21.0.0, SVG Export Plug-In . SVG Version: 6.00 Build 0)  -->
<svg version="1.1" id="Layer_1" xmlns="http://www.w3.org/2000/svg" xmlns:xlink="http://www.w3.org/1999/xlink" x="0px" y="0px"
	 viewBox="0 0 512 512" style="enable-background:new 0 0 512 512;" xml:space="preserve">
<g>
	<g>
		<g>
			<path style="fill:#DFDFDF;" d="M198.653,176.985h-6.708c-10.815,0-21.128,2.217-30.529,6.217l48.28,42.806L198.653,176.985z"/>
		</g>
	</g>
	<g>
		<g>
			<polygon style="fill:#DFDFDF;" points="216.884,232.385 248.075,260.038 251.862,232.385 			"/>
		</g>
	</g>
	<g>
		<g>
			<polygon style="fill:#DFDFDF;" points="113.57,393.827 113.57,434.006 159.979,434.006 			"/>
		</g>
	</g>
	<g>
		<g>
			<polygon style="fill:#DFDFDF;" points="164.383,437.822 164.383,509.425 247.048,509.425 			"/>
		</g>
	</g>
	<g>
		<g>
			<path style="fill:#DFDFDF;" d="M288.301,359.592l1.301,9.507l-28.224,40.498l-28.201-40.498l7.119-52.085L125.001,214.786
				c-7.256,11.907-11.431,25.917-11.431,40.887v74.482l205.488,179.27h33.586v-75.419h19.6L288.301,359.592z"/>
		</g>
	</g>
	<g>
		<g>
			<path style="fill:#DFDFDF;" d="M379.02,200.045c-13.941-14.238-33.29-23.06-54.897-23.06l-12.481,55.399h-40.728l7.461,54.507
				l123.119,109.152V255.673C401.495,233.961,392.961,214.306,379.02,200.045z"/>
		</g>
	</g>
	<g>
		<g>
			<g>
				<path style="fill:#4A555F;" d="M257.525,0c-46.026,0-83.472,37.581-83.472,83.773c0,46.194,37.446,83.774,83.472,83.774
					c46.027,0,83.473-37.581,83.473-83.774C340.998,37.581,303.552,0,257.525,0z M257.525,160.71
					c-42.258,0-76.638-34.513-76.638-76.937c0-42.422,34.38-76.936,76.638-76.936c42.259,0,76.639,34.513,76.639,76.936
					C334.164,126.197,299.784,160.71,257.525,160.71z"/>
			</g>
		</g>
	</g>
	<g>
		<g>
			<path style="fill:#FFD452;" d="M257.525,14.846c-37.852,0-68.646,30.92-68.646,68.927s30.795,68.928,68.646,68.928
				c37.853,0,68.648-30.921,68.648-68.928S295.378,14.846,257.525,14.846z"/>
		</g>
	</g>
	<g>
		<g>
			<g>
				<path style="fill:#4A555F;" d="M255.028,231.099l-13.462-33.185c-0.135-0.334-0.321-0.645-0.554-0.919l-29.571-35.081
					c-0.649-0.77-1.605-1.214-2.611-1.214h-13.074c-1.038,0-2.02,0.472-2.668,1.283s-0.893,1.874-0.665,2.887l13.941,61.891
					c0.158,0.699,0.531,1.331,1.067,1.806l7.187,6.376c0.625,0.554,1.431,0.86,2.267,0.86h34.979c1.137,0,2.199-0.565,2.834-1.509
					C255.332,233.351,255.456,232.153,255.028,231.099z M218.181,228.966l-5.393-4.785l-12.76-56.643h7.214l28.198,33.452
					l11.349,27.976H218.181z"/>
			</g>
		</g>
	</g>
	<g>
		<g>
			<g>
				<path style="fill:#4A555F;" d="M329.685,161.993c-0.648-0.812-1.631-1.283-2.668-1.283H313.94c-1.007,0-1.963,0.444-2.611,1.215
					l-29.566,35.081c-0.232,0.275-0.419,0.585-0.555,0.918l-13.449,33.18c-0.427,1.054-0.302,2.251,0.333,3.195
					s1.697,1.509,2.834,1.509h40.711c1.597,0,2.982-1.107,3.333-2.667l15.381-68.261
					C330.578,163.867,330.334,162.806,329.685,161.993z M308.905,228.971h-32.906l11.338-27.973l28.192-33.451h7.216
					L308.905,228.971z"/>
			</g>
		</g>
	</g>
	<g>
		<g>
			<polygon style="fill:#F58E6F;" points="238.404,199.21 251.853,232.39 270.925,232.39 284.375,199.21 			"/>
		</g>
	</g>
	<g>
		<g>
			<polygon style="fill:#F58E6F;" points="270.914,232.385 251.862,232.385 248.075,260.038 278.375,286.892 			"/>
		</g>
	</g>
	<g>
		<g>
			<polygon style="fill:#F58E6F;" points="288.301,359.592 240.294,317.014 233.175,369.099 261.377,409.597 289.601,369.099 			"/>
		</g>
	</g>
	<g>
		<g>
			<rect x="148.389" y="299.064" style="fill:#4A555F;" width="6.833" height="49.095"/>
		</g>
	</g>
	<g>
		<g>
			<g>
				<path style="fill:#4A555F;" d="M287.208,197.3c-0.635-0.944-1.697-1.509-2.834-1.509h-45.971c-1.136,0-2.199,0.565-2.834,1.509
					c-0.635,0.944-0.76,2.141-0.333,3.195l13.45,33.18c0.523,1.29,1.775,2.134,3.167,2.134h19.072c1.391,0,2.644-0.844,3.166-2.134
					l13.449-33.18C287.968,199.441,287.843,198.244,287.208,197.3z M268.625,228.971h-14.47l-10.678-26.342h35.825L268.625,228.971z
					"/>
			</g>
		</g>
	</g>
	<g>
		<g>
			<g>
				<path style="fill:#4A555F;" d="M281.761,286.428L274.3,231.92c-0.232-1.693-1.677-2.955-3.385-2.955h-19.052
					c-1.707,0-3.153,1.262-3.385,2.955l-3.788,27.653c-0.155,1.132,0.266,2.266,1.12,3.024l30.301,26.854
					c0.639,0.566,1.449,0.859,2.267,0.859c0.55,0,1.103-0.132,1.611-0.404C281.247,289.232,281.954,287.845,281.761,286.428z
					 M251.708,258.691l3.135-22.888h13.091l5.806,42.413L251.708,258.691z"/>
			</g>
		</g>
	</g>
	<g>
		<g>
			<g>
				<path style="fill:#4A555F;" d="M292.987,368.635l-1.301-9.508c-0.111-0.809-0.508-1.553-1.119-2.095l-48.007-42.578
					c-0.944-0.836-2.272-1.083-3.453-0.648c-1.182,0.438-2.028,1.493-2.199,2.743l-7.118,52.085
					c-0.116,0.851,0.092,1.713,0.583,2.417l28.201,40.498c0.638,0.917,1.685,1.465,2.802,1.465c0.001,0,0.001,0,0.001,0
					c1.116,0,2.163-0.546,2.803-1.464l28.225-40.498C292.895,370.35,293.103,369.487,292.987,368.635z M261.377,403.618
					l-24.636-35.378l6.072-44.424l42.275,37.494l0.949,6.929L261.377,403.618z"/>
			</g>
		</g>
	</g>
	<g>
		<g>
			<rect x="365.764" y="430.586" style="fill:#4A555F;" width="6.479" height="6.838"/>
		</g>
	</g>
	<g>
		<g>
			<path style="fill:#4A555F;" d="M327.179,160.796c-1.362-0.073-2.723-0.096-4.083-0.096H191.945
				c-10.122,0-20.077,1.595-29.591,4.741l2.145,6.493c8.821-2.917,18.054-4.396,27.447-4.396h131.151c1.24,0,2.48,0.021,3.759,0.088
				c47.115,1.972,84.022,40.638,84.022,88.025v151.753h6.833V255.65C417.711,204.585,377.928,162.92,327.179,160.796z"/>
		</g>
	</g>
	<g>
		<g>
			<rect x="148.389" y="445.626" style="fill:#4A555F;" width="6.833" height="63.788"/>
		</g>
	</g>
	<g>
		<g>
			<path style="fill:#4A555F;" d="M104.186,430.586v-30.872h-6.833v34.291c0,1.889,1.529,3.419,3.417,3.419h38.281v-6.838H104.186z"
				/>
		</g>
	</g>
	<g>
		<g>
			<path style="fill:#4A555F;" d="M363.185,169.655l-2.892,6.195c14.213,6.645,26.427,17.064,35.321,30.131l5.648-3.849
				C391.676,188.049,378.51,176.819,363.185,169.655z"/>
		</g>
	</g>
	<g>
		<g>
			<rect x="362.346" y="299.064" style="fill:#4A555F;" width="6.833" height="49.095"/>
		</g>
	</g>
	<g>
		<g>
			<rect x="362.346" y="428.261" style="fill:#4A555F;" width="6.833" height="81.153"/>
		</g>
	</g>
	<g>
		<g>
			<path style="fill:#4A555F;" d="M316.823,511.992l4.491-5.155L81.35,297.503c-1.01-0.879-2.441-1.093-3.66-0.534
				c-1.219,0.554-2.002,1.772-2.002,3.112v63.883c0,0.993,0.43,1.935,1.181,2.585L244.803,512l4.471-5.171L82.521,362.401v-54.803
				L316.823,511.992z"/>
		</g>
	</g>
	<g>
		<g>
			<polygon style="fill:#F58E6F;" points="90.512,325.186 90.512,358.737 264.087,509.415 301.398,509.415 			"/>
		</g>
	</g>
	<g>
		<g>
			<g>
				<path style="fill:#4A555F;" d="M442.345,427.706L111.064,133.994v-43.86h22.699c1.396,0,2.651-0.849,3.171-2.146
					c0.519-1.297,0.199-2.779-0.81-3.745L86.201,36.486c-1.321-1.262-3.401-1.262-4.722,0L31.555,84.243
					c-1.009,0.966-1.329,2.448-0.81,3.745c0.52,1.297,1.775,2.146,3.171,2.146h22.062v66.488c0,0.978,0.419,1.91,1.151,2.559
					l380.685,337.535c0.637,0.565,1.447,0.86,2.267,0.86c0.474,0,0.952-0.099,1.401-0.302c1.226-0.552,2.014-1.772,2.014-3.117
					v-63.893C443.496,429.286,443.077,428.354,442.345,427.706z M436.663,486.56L62.812,155.084V86.715
					c0-1.889-1.529-3.419-3.417-3.419h-16.96L83.84,43.688l41.405,39.608h-17.597c-1.887,0-3.417,1.53-3.417,3.419v48.818
					c0,0.978,0.419,1.91,1.151,2.559l331.281,293.712V486.56z"/>
			</g>
		</g>
	</g>
	<g>
		<g>
			<polygon style="fill:#71CCE0;" points="96.239,140.678 96.239,75.288 105.3,75.288 83.84,54.759 62.38,75.288 70.803,75.288 
				70.803,151.476 428.671,468.781 428.671,435.41 			"/>
		</g>
	</g>
	<g>
		<g>
			<path style="fill:#4A555F;" d="M480.445,84.243l-49.924-47.757c-1.321-1.262-3.401-1.262-4.722,0l-49.923,47.757
				c-1.009,0.966-1.329,2.448-0.81,3.745c0.519,1.295,1.775,2.146,3.171,2.146h22.038v43.875l-31.078,27.561l4.533,5.117
				l32.228-28.582c0.731-0.649,1.15-1.58,1.15-2.559V86.715c0-1.889-1.529-3.419-3.417-3.419h-16.937l41.405-39.608l41.406,39.608
				h-17.622c-1.887,0-3.417,1.53-3.417,3.419v68.37l-44.257,39.232l4.531,5.117l45.417-40.259c0.679-0.601,1.087-1.454,1.141-2.36
				c0.007-0.126,0.008-0.25,0.001-0.374V90.134h22.723c1.396,0,2.651-0.85,3.171-2.146
				C481.774,86.691,481.453,85.209,480.445,84.243z"/>
		</g>
	</g>
	<g>
		<g>
			<path style="fill:#F58E6F;" d="M428.16,54.759L406.7,75.288h8.399v65.405l-33.917,30.079
				c6.904,4.756,13.215,10.355,18.784,16.671l40.57-35.964v-76.19h9.084L428.16,54.759z"/>
		</g>
	</g>
	<g>
		<g>
			<g>
				<path style="fill:#4A555F;" d="M102.084,275.417c-1.272-0.53-2.74-0.243-3.72,0.728l-21.677,21.506
					c-0.674,0.67-1.04,1.589-1.009,2.539c0.03,0.949,0.454,1.843,1.17,2.467l21.677,18.9c0.634,0.553,1.435,0.841,2.246,0.841
					c0.478,0,0.961-0.101,1.414-0.307c1.219-0.555,2.002-1.772,2.002-3.112v-40.406
					C104.186,277.193,103.356,275.947,102.084,275.417z M97.353,311.466l-13.244-11.548l13.244-13.14V311.466z"/>
			</g>
		</g>
	</g>
	<g>
		<g>
			<path style="fill:#4A555F;" d="M104.716,219.284c-0.243,0.589-2.392,5.811-3.021,7.915c-0.016,0.051-0.03,0.104-0.042,0.157
				c-2.854,9.091-4.3,18.61-4.3,28.294v48.908h6.833V255.65c0-9.05,1.359-17.938,4.039-26.417c0.023-0.074,0.043-0.149,0.062-0.226
				c0.509-1.618,2.139-5.649,2.743-7.113L104.716,219.284z"/>
		</g>
	</g>
	<g>
		<g>
			<g>
				<path style="fill:#4A555F;" d="M432.836,390.997h6.833v-6.838h-6.833V390.997z M432.836,377.321h6.833v-6.838h-6.833V377.321z
					 M432.836,329.455v6.838h6.833v-6.838H432.836z M432.836,349.969h6.833v-6.838h-6.833V349.969z M432.836,363.645h6.833v-6.838
					h-6.833V363.645z"/>
			</g>
		</g>
	</g>
	<g>
		<g>
			<g>
				<path style="fill:#4A555F;" d="M75.676,255.068h6.833l0.001-6.835l-6.834,0.264V255.068z M76.004,241.108l6.807,0.592
					c0.186-2.128,0.457-4.332,0.81-6.548l-6.749-1.073C76.495,236.455,76.202,238.82,76.004,241.108z M75.676,268.735h6.833v-6.832
					h-6.833V268.735z M78.199,227.149l6.669,1.491c0.475-2.127,1.025-4.294,1.635-6.443l-6.573-1.868
					C79.284,222.602,78.701,224.896,78.199,227.149z M84.596,206.943c-0.047,0.104-1.143,2.575-2.56,6.676l6.46,2.232
					c1.309-3.792,2.331-6.1,2.341-6.124L84.596,206.943z"/>
			</g>
		</g>
	</g>
</g>
</svg>
